<?xml version="1.0" encoding="UTF-8" standalone="no"?>
<!-- Created with qrencode 4.1.1 (https://fukuchi.org/works/qrencode/index.html) -->

<svg
   width="3.38727cm"
   height="3.38727cm"
   viewBox="0 0 31.997013 31.997013"
   preserveAspectRatio="none"
   version="1.1"
   id="svg233"
   sodipodi:docname="qr.svg"
   inkscape:version="1.4 (e7c3feb100, 2024-10-09)"
   xmlns:inkscape="http://www.inkscape.org/namespaces/inkscape"
   xmlns:sodipodi="http://sodipodi.sourceforge.net/DTD/sodipodi-0.dtd"
   xmlns="http://www.w3.org/2000/svg"
   xmlns:svg="http://www.w3.org/2000/svg">
  <defs
     id="defs233">
    <rect
       x="53.915894"
       y="61.217003"
       width="38.976696"
       height="30.776989"
       id="rect233" />
  </defs>
  <sodipodi:namedview
     id="namedview233"
     pagecolor="#ffffff"
     bordercolor="#000000"
     borderopacity="0.25"
     inkscape:showpageshadow="2"
     inkscape:pageopacity="0.0"
     inkscape:pagecheckerboard="0"
     inkscape:deskcolor="#d1d1d1"
     inkscape:document-units="cm"
     inkscape:zoom="0.27821111"
     inkscape:cx="-1071.1291"
     inkscape:cy="-138.38412"
     inkscape:window-width="2215"
     inkscape:window-height="1242"
     inkscape:window-x="0"
     inkscape:window-y="0"
     inkscape:window-maximized="1"
     inkscape:current-layer="svg233" />
  <g
     id="g234"
     transform="translate(-4,-4)">
    <rect
       x="4"
       y="4"
       width="1"
       height="1"
       fill="#000000"
       id="rect2" />
    <rect
       x="5"
       y="4"
       width="1"
       height="1"
       fill="#000000"
       id="rect3" />
    <rect
       x="6"
       y="4"
       width="1"
       height="1"
       fill="#000000"
       id="rect4" />
    <rect
       x="7"
       y="4"
       width="1"
       height="1"
       fill="#000000"
       id="rect5" />
    <rect
       x="8"
       y="4"
       width="1"
       height="1"
       fill="#000000"
       id="rect6" />
    <rect
       x="9"
       y="4"
       width="1"
       height="1"
       fill="#000000"
       id="rect7" />
    <rect
       x="10"
       y="4"
       width="1"
       height="1"
       fill="#000000"
       id="rect8" />
    <rect
       x="4"
       y="5"
       width="1"
       height="1"
       fill="#000000"
       id="rect18" />
    <rect
       x="10"
       y="5"
       width="1"
       height="1"
       fill="#000000"
       id="rect19" />
    <rect
       x="4"
       y="6"
       width="1"
       height="1"
       fill="#000000"
       id="rect23" />
    <rect
       x="6"
       y="6"
       width="1"
       height="1"
       fill="#000000"
       id="rect24" />
    <rect
       x="7"
       y="6"
       width="1"
       height="1"
       fill="#000000"
       id="rect25" />
    <rect
       x="8"
       y="6"
       width="1"
       height="1"
       fill="#000000"
       id="rect26" />
    <rect
       x="10"
       y="6"
       width="1"
       height="1"
       fill="#000000"
       id="rect27" />
    <rect
       x="4"
       y="7"
       width="1"
       height="1"
       fill="#000000"
       id="rect35" />
    <rect
       x="6"
       y="7"
       width="1"
       height="1"
       fill="#000000"
       id="rect36" />
    <rect
       x="7"
       y="7"
       width="1"
       height="1"
       fill="#000000"
       id="rect37" />
    <rect
       x="8"
       y="7"
       width="1"
       height="1"
       fill="#000000"
       id="rect38" />
    <rect
       x="10"
       y="7"
       width="1"
       height="1"
       fill="#000000"
       id="rect39" />
    <rect
       x="4"
       y="8"
       width="1"
       height="1"
       fill="#000000"
       id="rect46" />
    <rect
       x="6"
       y="8"
       width="1"
       height="1"
       fill="#000000"
       id="rect47" />
    <rect
       x="7"
       y="8"
       width="1"
       height="1"
       fill="#000000"
       id="rect48" />
    <rect
       x="8"
       y="8"
       width="1"
       height="1"
       fill="#000000"
       id="rect49" />
    <rect
       x="10"
       y="8"
       width="1"
       height="1"
       fill="#000000"
       id="rect50" />
    <rect
       x="4"
       y="9"
       width="1"
       height="1"
       fill="#000000"
       id="rect59" />
    <rect
       x="10"
       y="9"
       width="1"
       height="1"
       fill="#000000"
       id="rect60" />
    <rect
       x="4"
       y="10"
       width="1"
       height="1"
       fill="#000000"
       id="rect66" />
    <rect
       x="5"
       y="10"
       width="1"
       height="1"
       fill="#000000"
       id="rect67" />
    <rect
       x="6"
       y="10"
       width="1"
       height="1"
       fill="#000000"
       id="rect68" />
    <rect
       x="7"
       y="10"
       width="1"
       height="1"
       fill="#000000"
       id="rect69" />
    <rect
       x="8"
       y="10"
       width="1"
       height="1"
       fill="#000000"
       id="rect70" />
    <rect
       x="9"
       y="10"
       width="1"
       height="1"
       fill="#000000"
       id="rect71" />
    <rect
       x="10"
       y="10"
       width="1"
       height="1"
       fill="#000000"
       id="rect72" />
  </g>
  <g
     id="g233"
     transform="translate(6.9970139,-4)">
    <rect
       x="18"
       y="4"
       width="1"
       height="1"
       fill="#000000"
       id="rect11" />
    <rect
       x="19"
       y="4"
       width="1"
       height="1"
       fill="#000000"
       id="rect12" />
    <rect
       x="20"
       y="4"
       width="1"
       height="1"
       fill="#000000"
       id="rect13" />
    <rect
       x="21"
       y="4"
       width="1"
       height="1"
       fill="#000000"
       id="rect14" />
    <rect
       x="22"
       y="4"
       width="1"
       height="1"
       fill="#000000"
       id="rect15" />
    <rect
       x="23"
       y="4"
       width="1"
       height="1"
       fill="#000000"
       id="rect16" />
    <rect
       x="24"
       y="4"
       width="1"
       height="1"
       fill="#000000"
       id="rect17" />
    <rect
       x="18"
       y="5"
       width="1"
       height="1"
       fill="#000000"
       id="rect21" />
    <rect
       x="24"
       y="5"
       width="1"
       height="1"
       fill="#000000"
       id="rect22" />
    <rect
       x="18"
       y="6"
       width="1"
       height="1"
       fill="#000000"
       id="rect30" />
    <rect
       x="20"
       y="6"
       width="1"
       height="1"
       fill="#000000"
       id="rect31" />
    <rect
       x="21"
       y="6"
       width="1"
       height="1"
       fill="#000000"
       id="rect32" />
    <rect
       x="22"
       y="6"
       width="1"
       height="1"
       fill="#000000"
       id="rect33" />
    <rect
       x="24"
       y="6"
       width="1"
       height="1"
       fill="#000000"
       id="rect34" />
    <rect
       x="18"
       y="7"
       width="1"
       height="1"
       fill="#000000"
       id="rect41" />
    <rect
       x="20"
       y="7"
       width="1"
       height="1"
       fill="#000000"
       id="rect42" />
    <rect
       x="21"
       y="7"
       width="1"
       height="1"
       fill="#000000"
       id="rect43" />
    <rect
       x="22"
       y="7"
       width="1"
       height="1"
       fill="#000000"
       id="rect44" />
    <rect
       x="24"
       y="7"
       width="1"
       height="1"
       fill="#000000"
       id="rect45" />
    <rect
       x="18"
       y="8"
       width="1"
       height="1"
       fill="#000000"
       id="rect54" />
    <rect
       x="20"
       y="8"
       width="1"
       height="1"
       fill="#000000"
       id="rect55" />
    <rect
       x="21"
       y="8"
       width="1"
       height="1"
       fill="#000000"
       id="rect56" />
    <rect
       x="22"
       y="8"
       width="1"
       height="1"
       fill="#000000"
       id="rect57" />
    <rect
       x="24"
       y="8"
       width="1"
       height="1"
       fill="#000000"
       id="rect58" />
    <rect
       x="18"
       y="9"
       width="1"
       height="1"
       fill="#000000"
       id="rect64" />
    <rect
       x="24"
       y="9"
       width="1"
       height="1"
       fill="#000000"
       id="rect65" />
    <rect
       x="18"
       y="10"
       width="1"
       height="1"
       fill="#000000"
       id="rect76" />
    <rect
       x="19"
       y="10"
       width="1"
       height="1"
       fill="#000000"
       id="rect77" />
    <rect
       x="20"
       y="10"
       width="1"
       height="1"
       fill="#000000"
       id="rect78" />
    <rect
       x="21"
       y="10"
       width="1"
       height="1"
       fill="#000000"
       id="rect79" />
    <rect
       x="22"
       y="10"
       width="1"
       height="1"
       fill="#000000"
       id="rect80" />
    <rect
       x="23"
       y="10"
       width="1"
       height="1"
       fill="#000000"
       id="rect81" />
    <rect
       x="24"
       y="10"
       width="1"
       height="1"
       fill="#000000"
       id="rect82" />
  </g>
  <g
     id="g235"
     transform="translate(-4,6.9970142)">
    <rect
       x="4"
       y="18"
       width="1"
       height="1"
       fill="#000000"
       id="rect147" />
    <rect
       x="5"
       y="18"
       width="1"
       height="1"
       fill="#000000"
       id="rect148" />
    <rect
       x="6"
       y="18"
       width="1"
       height="1"
       fill="#000000"
       id="rect149" />
    <rect
       x="7"
       y="18"
       width="1"
       height="1"
       fill="#000000"
       id="rect150" />
    <rect
       x="8"
       y="18"
       width="1"
       height="1"
       fill="#000000"
       id="rect151" />
    <rect
       x="9"
       y="18"
       width="1"
       height="1"
       fill="#000000"
       id="rect152" />
    <rect
       x="10"
       y="18"
       width="1"
       height="1"
       fill="#000000"
       id="rect153" />
    <rect
       x="4"
       y="19"
       width="1"
       height="1"
       fill="#000000"
       id="rect159" />
    <rect
       x="10"
       y="19"
       width="1"
       height="1"
       fill="#000000"
       id="rect160" />
    <rect
       x="4"
       y="20"
       width="1"
       height="1"
       fill="#000000"
       id="rect168" />
    <rect
       x="6"
       y="20"
       width="1"
       height="1"
       fill="#000000"
       id="rect169" />
    <rect
       x="7"
       y="20"
       width="1"
       height="1"
       fill="#000000"
       id="rect170" />
    <rect
       x="8"
       y="20"
       width="1"
       height="1"
       fill="#000000"
       id="rect171" />
    <rect
       x="10"
       y="20"
       width="1"
       height="1"
       fill="#000000"
       id="rect172" />
    <rect
       x="4"
       y="21"
       width="1"
       height="1"
       fill="#000000"
       id="rect181" />
    <rect
       x="6"
       y="21"
       width="1"
       height="1"
       fill="#000000"
       id="rect182" />
    <rect
       x="7"
       y="21"
       width="1"
       height="1"
       fill="#000000"
       id="rect183" />
    <rect
       x="8"
       y="21"
       width="1"
       height="1"
       fill="#000000"
       id="rect184" />
    <rect
       x="10"
       y="21"
       width="1"
       height="1"
       fill="#000000"
       id="rect185" />
    <rect
       x="4"
       y="22"
       width="1"
       height="1"
       fill="#000000"
       id="rect192" />
    <rect
       x="6"
       y="22"
       width="1"
       height="1"
       fill="#000000"
       id="rect193" />
    <rect
       x="7"
       y="22"
       width="1"
       height="1"
       fill="#000000"
       id="rect194" />
    <rect
       x="8"
       y="22"
       width="1"
       height="1"
       fill="#000000"
       id="rect195" />
    <rect
       x="10"
       y="22"
       width="1"
       height="1"
       fill="#000000"
       id="rect196" />
    <rect
       x="4"
       y="23"
       width="1"
       height="1"
       fill="#000000"
       id="rect207" />
    <rect
       x="10"
       y="23"
       width="1"
       height="1"
       fill="#000000"
       id="rect208" />
    <rect
       x="4"
       y="24"
       width="1"
       height="1"
       fill="#000000"
       id="rect218" />
    <rect
       x="5"
       y="24"
       width="1"
       height="1"
       fill="#000000"
       id="rect219" />
    <rect
       x="6"
       y="24"
       width="1"
       height="1"
       fill="#000000"
       id="rect220" />
    <rect
       x="7"
       y="24"
       width="1"
       height="1"
       fill="#000000"
       id="rect221" />
    <rect
       x="8"
       y="24"
       width="1"
       height="1"
       fill="#000000"
       id="rect222" />
    <rect
       x="9"
       y="24"
       width="1"
       height="1"
       fill="#000000"
       id="rect223" />
    <rect
       x="10"
       y="24"
       width="1"
       height="1"
       fill="#000000"
       id="rect224" />
  </g>
  <text
     xml:space="preserve"
     transform="matrix(1.9156284,0,0,1.7236844,-95.307313,-102.15564)"
     id="text233"
     style="font-size:14.6667px;font-family:ArialMT, Arial;-inkscape-font-specification:'ArialMT, Arial, Normal';text-align:start;letter-spacing:0px;writing-mode:lr-tb;direction:ltr;white-space:pre;shape-inside:url(#rect233);fill:#000000;stroke-width:0.7;stroke-dasharray:0.7, 0.7"><tspan
       x="53.916016"
       y="74.427892"
       id="tspan2"><tspan
         style="font-family:cmr10;-inkscape-font-specification:cmr10"
         id="tspan1">Q</tspan></tspan></text>
</svg>
